<svg xmlns="http://www.w3.org/2000/svg" viewBox="0 0 235.76 72.27"><defs><style>.cls-1{fill:#8e60c4;}</style></defs><g id="Capa_2" data-name="Capa 2"><g id="Layer_4" data-name="Layer 4"><path class="cls-1" d="M36.13,0H4.8A4.8,4.8,0,0,0,0,4.8V67.47a4.8,4.8,0,0,0,4.8,4.8H36.13A36.14,36.14,0,0,0,72.27,36.13h0A36.14,36.14,0,0,0,36.13,0ZM47.41,40l-9,5.2L26.05,52.36a2.29,2.29,0,0,1-3.44-2V21.89a2.3,2.3,0,0,1,3.44-2L38.39,27l9,5.21A4.52,4.52,0,0,1,47.41,40Z"/><path class="cls-1" d="M120.48,30.15V69.67a1.66,1.66,0,0,1-1.66,1.66h-8.77a1.66,1.66,0,0,1-1.66-1.66v-1.4c-1.87,2.47-6.55,4-10.47,4-11.75,0-21.11-10.13-21.11-22.39,0-12.43,9.62-22.48,21.11-22.48,3.83,0,8.6,1.87,10.47,3.92v-.83a2.15,2.15,0,0,1,2.15-2.15h8.12A1.81,1.81,0,0,1,120.48,30.15ZM108.9,49.88c0-6.05-4.17-10.39-9.79-10.39a10,10,0,0,0-10,10.39,10,10,0,0,0,10,10.38C104.73,60.26,108.9,56,108.9,49.88Z"/><path class="cls-1" d="M156.24,37.68a2.8,2.8,0,0,1-3,2.77l-.83,0c-4.68,0-8.68,3.49-8.68,10.38V70.49a1.78,1.78,0,0,1-1.78,1.78h-8.53a1.78,1.78,0,0,1-1.78-1.78V31.26a2,2,0,0,1,2-2h8.17a1.93,1.93,0,0,1,1.93,1.94v1a12.92,12.92,0,0,1,9.54-3.92h.86a2.12,2.12,0,0,1,2.12,2.12Z"/><path class="cls-1" d="M199.92,61.44a3,3,0,0,1,.34,4.42c-4,4-10.39,6.41-16.79,6.41-12.94,0-23.32-10.13-23.32-22.39a22.37,22.37,0,0,1,22.3-22.48,22.8,22.8,0,0,1,20.23,12.23,3.64,3.64,0,0,1-1.12,4.61L179.9,59.75a9.72,9.72,0,0,0,3.57.51,12.07,12.07,0,0,0,7.27-2.17,3.89,3.89,0,0,1,4.75-.06Zm-27.17-8.75,15.66-11.16a9.73,9.73,0,0,0-6-2,10,10,0,0,0-10,10.39A9.63,9.63,0,0,0,172.75,52.69Z"/><path class="cls-1" d="M221.32,64.16a4.8,4.8,0,0,1-5.83,3.72,4.86,4.86,0,1,1,5.83-3.72Zm-2.84-11h0a4.15,4.15,0,0,1-3.12-4.7l6.89-42.18A6.85,6.85,0,1,1,235.57,9.4L223.41,50.26A4.14,4.14,0,0,1,218.48,53.11Z"/></g></g></svg>